{
  "accessors": [
    {
      "bufferView": 2,
      "componentType": 5126,
      "count": 32,
      "max": [
        1.221092939376831,
        0.0,
        1.221092939376831
      ],
      "min": [
        -1.221092939376831,
        0.0,
        -1.221092939376831
      ],
      "type": "VEC3"
    },
    {
      "bufferView": 2,
      "byteOffset": 384,
      "componentType": 5126,
      "count": 32,
      "max": [
        0.0,
        1.0,
        -0.0
      ],
      "min": [
        0.0,
        1.0,
        -0.0
      ],
      "type": "VEC3"
    },
    {
      "bufferView": 1,
      "componentType": 5126,
      "count": 32,
      "max": [
        0.0,
        0.0
      ],
      "min": [
        0.0,
        0.0
      ],
      "type": "VEC2"
    },
    {
      "bufferView": 0,
      "componentType": 5125,
      "count": 90,
      "type": "SCALAR"
    },
    {
      "bufferView": 2,
      "byteOffset": 768,
      "componentType": 5126,
      "count": 3524,
      "max": [
        0.6657846570014954,
        1.0000001192092896,
        0.6657846570014954
      ],
      "min": [
        -0.6657846570014954,
        0.0,
        -0.6657846570014954
      ],
      "type": "VEC3"
    },
    {
      "bufferView": 2,
      "byteOffset": 43056,
      "componentType": 5126,
      "count": 3524,
      "max": [
        0.9999995231628418,
        1.0,
        0.9999995231628418
      ],
      "min": [
        -0.9999995231628418,
        -1.0,
        -0.9999995231628418
      ],
      "type": "VEC3"
    },
    {
      "bufferView": 1,
      "byteOffset": 256,
      "componentType": 5126,
      "count": 3524,
      "max": [
        0.6250001192092896,
        1.0000001192092896
      ],
      "min": [
        0.125,
        0.0
      ],
      "type": "VEC2"
    },
    {
      "bufferView": 0,
      "byteOffset": 360,
      "componentType": 5125,
      "count": 18432,
      "type": "SCALAR"
    },
    {
      "bufferView": 2,
      "byteOffset": 85344,
      "componentType": 5126,
      "count": 54,
      "max": [
        0.5831360220909119,
        0.0,
        0.5831360220909119
      ],
      "min": [
        -0.5831360220909119,
        0.0,
        -0.5831360220909119
      ],
      "type": "VEC3"
    },
    {
      "bufferView": 2,
      "byteOffset": 85992,
      "componentType": 5126,
      "count": 54,
      "max": [
        0.0,
        -1.0,
        -0.0
      ],
      "min": [
        0.0,
        -1.0,
        -0.0
      ],
      "type": "VEC3"
    },
    {
      "bufferView": 1,
      "byteOffset": 28448,
      "componentType": 5126,
      "count": 54,
      "max": [
        0.0,
        0.0
      ],
      "min": [
        0.0,
        0.0
      ],
      "type": "VEC2"
    },
    {
      "bufferView": 0,
      "byteOffset": 74088,
      "componentType": 5125,
      "count": 192,
      "type": "SCALAR"
    },
    {
      "bufferView": 2,
      "byteOffset": 86640,
      "componentType": 5126,
      "count": 948,
      "max": [
        0.06520641595125198,
        1.4432361125946045,
        0.18333524465560913
      ],
      "min": [
        -0.10837709903717041,
        0.07917805761098862,
        -0.18333524465560913
      ],
      "type": "VEC3"
    },
    {
      "bufferView": 2,
      "byteOffset": 98016,
      "componentType": 5126,
      "count": 948,
      "max": [
        0.9999997615814209,
        0.30885469913482666,
        0.8106434941291809
      ],
      "min": [
        -0.9999673366546631,
        -0.2489732950925827,
        -0.8106434941291809
      ],
      "type": "VEC3"
    },
    {
      "bufferView": 1,
      "byteOffset": 28880,
      "componentType": 5126,
      "count": 948,
      "max": [
        0.5000000596046448,
        1.0000001192092896
      ],
      "min": [
        0.0,
        0.0
      ],
      "type": "VEC2"
    },
    {
      "bufferView": 0,
      "byteOffset": 74856,
      "componentType": 5125,
      "count": 4608,
      "type": "SCALAR"
    },
    {
      "bufferView": 2,
      "byteOffset": 109392,
      "componentType": 5126,
      "count": 820,
      "max": [
        0.0685923621058464,
        1.5060514211654663,
        0.2075696438550949
      ],
      "min": [
        -0.10253018140792847,
        0.017942043021321297,
        -0.20756962895393372
      ],
      "type": "VEC3"
    },
    {
      "bufferView": 2,
      "byteOffset": 119232,
      "componentType": 5126,
      "count": 820,
      "max": [
        0.9999743700027466,
        0.9950903058052063,
        0.9876560568809509
      ],
      "min": [
        -0.9952228665351868,
        -0.9944481253623962,
        -0.9876560568809509
      ],
      "type": "VEC3"
    },
    {
      "bufferView": 1,
      "byteOffset": 36464,
      "componentType": 5126,
      "count": 820,
      "max": [
        0.4166666865348816,
        0.9899470806121826
      ],
      "min": [
        0.0,
        0.0100529994815588
      ],
      "type": "VEC2"
    },
    {
      "bufferView": 0,
      "byteOffset": 93288,
      "componentType": 5125,
      "count": 3840,
      "type": "SCALAR"
    },
    {
      "bufferView": 2,
      "byteOffset": 129072,
      "componentType": 5126,
      "count": 948,
      "max": [
        0.13256652653217316,
        1.739432454109192,
        0.2620313763618469
      ],
      "min": [
        -0.16787253320217133,
        0.1113157570362091,
        -0.2620313763618469
      ],
      "type": "VEC3"
    },
    {
      "bufferView": 2,
      "byteOffset": 140448,
      "componentType": 5126,
      "count": 948,
      "max": [
        0.9999277591705322,
        0.41775354743003845,
        0.8302487134933472
      ],
      "min": [
        -0.9999924898147583,
        -0.36443623900413513,
        -0.8302487134933472
      ],
      "type": "VEC3"
    },
    {
      "bufferView": 1,
      "byteOffset": 43024,
      "componentType": 5126,
      "count": 948,
      "max": [
        0.5000000596046448,
        1.0000001192092896
      ],
      "min": [
        0.0,
        0.0
      ],
      "type": "VEC2"
    },
    {
      "bufferView": 0,
      "byteOffset": 108648,
      "componentType": 5125,
      "count": 4608,
      "type": "SCALAR"
    },
    {
      "bufferView": 2,
      "byteOffset": 151824,
      "componentType": 5126,
      "count": 819,
      "max": [
        0.15949182212352753,
        1.8139609098434448,
        0.29545778036117554
      ],
      "min": [
        -0.1669946014881134,
        0.03383965045213699,
        -0.29545775055885315
      ],
      "type": "VEC3"
    },
    {
      "bufferView": 2,
      "byteOffset": 161652,
      "componentType": 5126,
      "count": 819,
      "max": [
        0.995135486125946,
        0.9973049163818359,
        0.9847257137298584
      ],
      "min": [
        -0.9993021488189697,
        -0.9898093342781067,
        -0.9847257137298584
      ],
      "type": "VEC3"
    },
    {
      "bufferView": 1,
      "byteOffset": 50608,
      "componentType": 5126,
      "count": 819,
      "max": [
        0.4166666865348816,
        0.9899470806121826
      ],
      "min": [
        0.0,
        0.0100529994815588
      ],
      "type": "VEC2"
    },
    {
      "bufferView": 0,
      "byteOffset": 127080,
      "componentType": 5125,
      "count": 3840,
      "type": "SCALAR"
    },
    {
      "bufferView": 2,
      "byteOffset": 171480,
      "componentType": 5126,
      "count": 948,
      "max": [
        0.20847749710083008,
        1.0209146738052368,
        0.1507159024477005
      ],
      "min": [
        -0.08524472266435623,
        0.033887192606925964,
        -0.1507159024477005
      ],
      "type": "VEC3"
    },
    {
      "bufferView": 2,
      "byteOffset": 182856,
      "componentType": 5126,
      "count": 948,
      "max": [
        0.9999532699584961,
        0.44362306594848633,
        0.9556094408035278
      ],
      "min": [
        -0.9999499320983887,
        -0.40953484177589417,
        -0.9556094408035278
      ],
      "type": "VEC3"
    },
    {
      "bufferView": 1,
      "byteOffset": 57160,
      "componentType": 5126,
      "count": 948,
      "max": [
        0.5000000596046448,
        1.0000001192092896
      ],
      "min": [
        0.0,
        0.0
      ],
      "type": "VEC2"
    },
    {
      "bufferView": 0,
      "byteOffset": 142440,
      "componentType": 5125,
      "count": 4608,
      "type": "SCALAR"
    },
    {
      "bufferView": 2,
      "byteOffset": 194232,
      "componentType": 5126,
      "count": 818,
      "max": [
        0.236502006649971,
        1.0655373334884644,
        0.16619285941123962
      ],
      "min": [
        -0.07664065808057785,
        -0.002390341367572546,
        -0.16619285941123962
      ],
      "type": "VEC3"
    },
    {
      "bufferView": 2,
      "byteOffset": 204048,
      "componentType": 5126,
      "count": 818,
      "max": [
        0.9998427629470825,
        0.9959636926651001,
        0.9955617785453796
      ],
      "min": [
        -0.9832334518432617,
        -0.8762738108634949,
        -0.9955617785453796
      ],
      "type": "VEC3"
    },
    {
      "bufferView": 1,
      "byteOffset": 64744,
      "componentType": 5126,
      "count": 818,
      "max": [
        0.4166666865348816,
        0.9899470806121826
      ],
      "min": [
        0.0,
        0.0100529994815588
      ],
      "type": "VEC2"
    },
    {
      "bufferView": 0,
      "byteOffset": 160872,
      "componentType": 5125,
      "count": 3840,
      "type": "SCALAR"
    },
    {
      "bufferView": 2,
      "byteOffset": 213864,
      "componentType": 5126,
      "count": 948,
      "max": [
        0.06933606415987015,
        1.8043986558914185,
        0.39845800399780273
      ],
      "min": [
        -0.7471396923065186,
        0.121805839240551,
        -0.39845800399780273
      ],
      "type": "VEC3"
    },
    {
      "bufferView": 2,
      "byteOffset": 225240,
      "componentType": 5126,
      "count": 948,
      "max": [
        0.9999969005584717,
        0.907853364944458,
        0.8293827772140503
      ],
      "min": [
        -0.9956783652305603,
        -0.7870972156524658,
        -0.8293827772140503
      ],
      "type": "VEC3"
    },
    {
      "bufferView": 1,
      "byteOffset": 71288,
      "componentType": 5126,
      "count": 948,
      "max": [
        0.5000000596046448,
        1.0000001192092896
      ],
      "min": [
        0.0,
        0.0
      ],
      "type": "VEC2"
    },
    {
      "bufferView": 0,
      "byteOffset": 176232,
      "componentType": 5125,
      "count": 4608,
      "type": "SCALAR"
    },
    {
      "bufferView": 2,
      "byteOffset": 236616,
      "componentType": 5126,
      "count": 818,
      "max": [
        0.09508486092090607,
        1.8352954387664795,
        0.44450077414512634
      ],
      "min": [
        -0.8028444647789001,
        0.032180313020944595,
        -0.44450080394744873
      ],
      "type": "VEC3"
    },
    {
      "bufferView": 2,
      "byteOffset": 246432,
      "componentType": 5126,
      "count": 818,
      "max": [
        0.9999969005584717,
        0.999998927116394,
        0.9775204062461853
      ],
      "min": [
        -0.9784418344497681,
        -0.9718856811523438,
        -0.9775204062461853
      ],
      "type": "VEC3"
    },
    {
      "bufferView": 1,
      "byteOffset": 78872,
      "componentType": 5126,
      "count": 818,
      "max": [
        0.4166666865348816,
        0.9899470806121826
      ],
      "min": [
        0.0,
        0.0100529994815588
      ],
      "type": "VEC2"
    },
    {
      "bufferView": 0,
      "byteOffset": 194664,
      "componentType": 5125,
      "count": 3840,
      "type": "SCALAR"
    }
  ],
  "asset": {
    "extras": {
      "author": "AdiSage (https://sketchfab.com/adisage)",
      "license": "CC-BY-SA-4.0 (http://creativecommons.org/licenses/by-sa/4.0/)",
      "source": "https://sketchfab.com/3d-models/house-plant-4c4cfc7a848a45ada6e5facf2280ac3a",
      "title": "House Plant"
    },
    "generator": "Sketchfab-12.66.0",
    "version": "2.0"
  },
  "bufferViews": [
    {
      "buffer": 0,
      "byteLength": 210024,
      "name": "floatBufferViews",
      "target": 34963
    },
    {
      "buffer": 0,
      "byteLength": 85416,
      "byteOffset": 210024,
      "byteStride": 8,
      "name": "floatBufferViews",
      "target": 34962
    },
    {
      "buffer": 0,
      "byteLength": 256248,
      "byteOffset": 295440,
      "byteStride": 12,
      "name": "floatBufferViews",
      "target": 34962
    }
  ],
  "buffers": [
    {
      "byteLength": 551688,
      "uri": "scene.bin"
    }
  ],
  "materials": [
    {
      "name": "material_0",
      "pbrMetallicRoughness": {
        "baseColorFactor": [
          0.5329212278844312,
          0.555005806565371,
          0.5479132107163873,
          1.0
        ],
        "metallicFactor": 0.0
      }
    },
    {
      "name": "material",
      "pbrMetallicRoughness": {
        "baseColorFactor": [
          0.732532985489547,
          0.5474224033513336,
          0.17802069206734705,
          1.0
        ],
        "metallicFactor": 0.0,
        "roughnessFactor": 0.286909691188005
      }
    },
    {
      "doubleSided": true,
      "name": "soil",
      "pbrMetallicRoughness": {
        "baseColorFactor": [
          0.1036853145577586,
          0.03168329601627055,
          0.018030756422942926,
          1.0
        ],
        "metallicFactor": 0.0,
        "roughnessFactor": 0.7799722136086435
      }
    },
    {
      "name": "plant",
      "pbrMetallicRoughness": {
        "baseColorFactor": [
          0.15759099999999995,
          0.4610409999999997,
          0.023681999999999988,
          1.0
        ],
        "metallicFactor": 0.0,
        "roughnessFactor": 0.36044026533875684
      }
    },
    {
      "doubleSided": true,
      "name": "plant_rim",
      "pbrMetallicRoughness": {
        "baseColorFactor": [
          0.887641,
          1.0,
          0.434398,
          1.0
        ],
        "metallicFactor": 0.0,
        "roughnessFactor": 0.45772303595206393
      }
    }
  ],
  "meshes": [
    {
      "name": "Object_0",
      "primitives": [
        {
          "attributes": {
            "NORMAL": 1,
            "POSITION": 0,
            "TEXCOORD_0": 2
          },
          "indices": 3,
          "material": 0,
          "mode": 4
        }
      ]
    },
    {
      "name": "Object_1",
      "primitives": [
        {
          "attributes": {
            "NORMAL": 5,
            "POSITION": 4,
            "TEXCOORD_0": 6
          },
          "indices": 7,
          "material": 1,
          "mode": 4
        }
      ]
    },
    {
      "name": "Object_2",
      "primitives": [
        {
          "attributes": {
            "NORMAL": 9,
            "POSITION": 8,
            "TEXCOORD_0": 10
          },
          "indices": 11,
          "material": 2,
          "mode": 4
        }
      ]
    },
    {
      "name": "Object_3",
      "primitives": [
        {
          "attributes": {
            "NORMAL": 13,
            "POSITION": 12,
            "TEXCOORD_0": 14
          },
          "indices": 15,
          "material": 3,
          "mode": 4
        }
      ]
    },
    {
      "name": "Object_4",
      "primitives": [
        {
          "attributes": {
            "NORMAL": 17,
            "POSITION": 16,
            "TEXCOORD_0": 18
          },
          "indices": 19,
          "material": 4,
          "mode": 4
        }
      ]
    },
    {
      "name": "Object_5",
      "primitives": [
        {
          "attributes": {
            "NORMAL": 21,
            "POSITION": 20,
            "TEXCOORD_0": 22
          },
          "indices": 23,
          "material": 3,
          "mode": 4
        }
      ]
    },
    {
      "name": "Object_6",
      "primitives": [
        {
          "attributes": {
            "NORMAL": 25,
            "POSITION": 24,
            "TEXCOORD_0": 26
          },
          "indices": 27,
          "material": 4,
          "mode": 4
        }
      ]
    },
    {
      "name": "Object_7",
      "primitives": [
        {
          "attributes": {
            "NORMAL": 29,
            "POSITION": 28,
            "TEXCOORD_0": 30
          },
          "indices": 31,
          "material": 3,
          "mode": 4
        }
      ]
    },
    {
      "name": "Object_8",
      "primitives": [
        {
          "attributes": {
            "NORMAL": 33,
            "POSITION": 32,
            "TEXCOORD_0": 34
          },
          "indices": 35,
          "material": 4,
          "mode": 4
        }
      ]
    },
    {
      "name": "Object_9",
      "primitives": [
        {
          "attributes": {
            "NORMAL": 37,
            "POSITION": 36,
            "TEXCOORD_0": 38
          },
          "indices": 39,
          "material": 3,
          "mode": 4
        }
      ]
    },
    {
      "name": "Object_10",
      "primitives": [
        {
          "attributes": {
            "NORMAL": 41,
            "POSITION": 40,
            "TEXCOORD_0": 42
          },
          "indices": 43,
          "material": 4,
          "mode": 4
        }
      ]
    }
  ],
  "nodes": [
    {
      "children": [
        1
      ],
      "matrix": [
        1.0,
        0.0,
        0.0,
        0.0,
        0.0,
        2.220446049250313e-16,
        -1.0,
        0.0,
        0.0,
        1.0,
        2.220446049250313e-16,
        0.0,
        0.0,
        0.0,
        0.0,
        1.0
      ],
      "name": "Sketchfab_model"
    },
    {
      "children": [
        2
      ],
      "name": "root"
    },
    {
      "children": [
        3,
        5
      ],
      "matrix": [
        1.0,
        0.0,
        0.0,
        0.0,
        0.0,
        2.220446049250313e-16,
        1.0,
        0.0,
        0.0,
        -1.0,
        2.220446049250313e-16,
        0.0,
        0.0,
        0.0,
        0.0,
        1.0
      ],
      "name": "GLTF_SceneRootNode"
    },
    {
      "children": [
        4
      ],
      "name": "Circle_0"
    },
    {
      "mesh": 0,
      "name": "Object_4"
    },
    {
      "children": [
        6,
        7,
        9,
        12,
        15,
        18
      ],
      "matrix": [
        0.9948998039143632,
        0.0,
        0.10086813258488386,
        0.0,
        -0.0,
        1.0,
        0.0,
        0.0,
        -0.10086813258488386,
        -0.0,
        0.9948998039143632,
        0.0,
        0.0,
        0.0,
        0.0,
        1.0
      ],
      "name": "Cube_6"
    },
    {
      "mesh": 1,
      "name": "Object_6"
    },
    {
      "children": [
        8
      ],
      "matrix": [
        1.0,
        0.0,
        0.0,
        0.0,
        0.0,
        1.0,
        0.0,
        0.0,
        0.0,
        0.0,
        1.0,
        0.0,
        0.0,
        0.9431315660476685,
        0.0,
        1.0
      ],
      "name": "Cube.001_1"
    },
    {
      "mesh": 2,
      "name": "Object_8"
    },
    {
      "children": [
        10,
        11
      ],
      "matrix": [
        0.9509891717058387,
        0.04424713704865216,
        0.3060421313499836,
        0.0,
        -0.04211979929488362,
        0.9990206158348274,
        -0.013554764636869556,
        0.0,
        -0.30634215806121357,
        1.246444451125095e-09,
        0.9519214685016818,
        0.0,
        -0.04301035776734352,
        0.7169210314750671,
        0.0,
        1.0
      ],
      "name": "Plane_2"
    },
    {
      "mesh": 3,
      "name": "Object_10"
    },
    {
      "mesh": 4,
      "name": "Object_11"
    },
    {
      "children": [
        13,
        14
      ],
      "matrix": [
        -0.9829314259015494,
        0.13236703316211204,
        -0.12776846444646398,
        0.0,
        0.13273625374008383,
        0.9911352413749984,
        0.005658643615888885,
        0.0,
        0.12738484571641592,
        -0.01139744867871236,
        -0.9917878801666318,
        0.0,
        0.030322229489684105,
        0.7169210314750671,
        -0.027096496894955635,
        1.0
      ],
      "name": "Plane.001_3"
    },
    {
      "mesh": 5,
      "name": "Object_13"
    },
    {
      "mesh": 6,
      "name": "Object_14"
    },
    {
      "children": [
        16,
        17
      ],
      "matrix": [
        -0.8446635611485087,
        0.24133857987844495,
        0.47780661185271894,
        0.0,
        0.21926684248969527,
        0.970269893066648,
        -0.10246163376129874,
        0.0,
        -0.48832931537285224,
        0.01822153864773224,
        -0.8724691715337516,
        0.0,
        0.11296507716178894,
        0.7216026782989502,
        -0.007101317401975393,
        1.0
      ],
      "name": "Plane.002_4"
    },
    {
      "mesh": 7,
      "name": "Object_16"
    },
    {
      "mesh": 8,
      "name": "Object_17"
    },
    {
      "children": [
        19,
        20
      ],
      "matrix": [
        0.948760156635146,
        0.24292034712496455,
        0.20209866435565574,
        0.0,
        -0.23573539530160129,
        0.9700081943111833,
        -0.05926994492283101,
        0.0,
        -0.21043523607906314,
        0.008591153696935486,
        0.9775700504283591,
        0.0,
        0.05375222861766815,
        0.6887005567550659,
        -0.0038251038640737534,
        1.0
      ],
      "name": "Plane.003_5"
    },
    {
      "mesh": 9,
      "name": "Object_19"
    },
    {
      "mesh": 10,
      "name": "Object_20"
    }
  ],
  "scene": 0,
  "scenes": [
    {
      "name": "Sketchfab_Scene",
      "nodes": [
        0
      ]
    }
  ]
}
